<svg version="1.1" id="Layer_1" xmlns="http://www.w3.org/2000/svg" xmlns:xlink="http://www.w3.org/1999/xlink" x="0px" y="0px"
	 width="100%" viewBox="0 0 1024 544" enable-background="new 0 0 1024 544" xml:space="preserve">
<defs>
<linearGradient id="gradient" x1="0%" y1="0%" x2="100%" y2="0%">
<stop offset="0%" style="stop-color:#87CEEB;stop-opacity:1" />
<stop offset="100%" style="stop-color:#008000;stop-opacity:1" />
</linearGradient>
</defs>
<path fill="url(#gradient)" opacity="1.000000" stroke="none" 
	d="
M178.903976,323.970886 
	C172.676971,310.303558 166.635742,296.963531 160.484039,283.674652 
	C154.223343,270.150421 140.678253,262.457977 126.921143,264.477753 
	C113.138580,266.501221 103.144180,277.692413 101.166359,293.108368 
	C99.327530,307.441010 103.949234,319.620178 113.178986,330.359985 
	C114.216751,331.567535 115.956635,332.324158 115.955772,334.296448 
	C114.750824,335.369934 113.661026,334.484589 112.749458,333.983765 
	C94.373291,323.887115 83.687866,308.401917 83.055260,287.437744 
	C82.450439,267.394012 90.327942,250.713058 108.576027,240.951340 
	C136.785339,225.860901 174.166656,233.162415 190.910431,265.575226 
	C194.499771,272.523499 197.619522,279.713531 201.004395,286.768799 
	C201.848907,288.529022 202.535187,290.459717 204.891998,291.858917 
	C209.771637,285.846863 213.276169,279.069092 217.097748,272.521667 
	C228.352554,253.239075 239.499420,233.933670 254.782669,217.358780 
	C275.935883,194.417831 302.253387,181.878342 332.849945,177.833237 
	C337.385712,177.233566 338.148224,175.713959 336.683655,171.720352 
	C335.820312,169.366135 334.175201,166.996643 335.335327,163.411621 
	C350.403931,171.398315 365.174072,179.226837 381.274902,187.760620 
	C366.887024,198.788818 353.357605,209.158997 339.331451,219.909912 
	C338.131409,214.547958 340.579041,210.447952 340.079071,206.097015 
	C338.416779,204.593567 336.680206,205.620193 334.970917,206.044510 
	C310.365692,212.152435 291.670837,226.764053 276.926025,246.824036 
	C261.097656,268.358124 248.726120,292.004120 235.700333,315.243866 
	C231.298462,323.097412 226.759933,330.884705 220.361282,337.341522 
	C208.545685,349.264526 193.861115,347.867828 184.429764,333.877747 
	C182.391968,330.854950 180.825073,327.514709 178.903976,323.970886 
z"/>
<path fill="url(#gradient)" opacity="1.000000" stroke="none" 
	d="
M294.827332,285.961792 
	C295.296844,272.589874 292.633728,260.327423 287.220245,248.687653 
	C285.909088,245.868484 286.060883,243.812225 288.164215,241.509430 
	C293.464752,235.706192 299.214386,230.441391 305.472473,225.680984 
	C308.412292,223.444687 309.914032,224.044403 311.551331,227.206223 
	C322.322998,248.007828 326.904968,270.165009 325.028839,293.388062 
	C322.655548,322.765594 311.043365,348.285339 289.139709,368.161133 
	C258.097046,396.329865 222.511368,405.072815 182.309189,390.378510 
	C180.972076,389.889832 179.306931,389.842712 178.740158,388.076538 
	C179.501984,386.378174 180.771744,387.369995 181.721481,387.587738 
	C225.130951,397.540436 263.600647,374.463684 280.930115,337.615570 
	C288.516357,321.484711 294.809052,304.756073 294.827332,285.961792 
z"/>
<path fill="url(#gradient)" opacity="1.000000" stroke="none" 
	d="
M112.445587,304.433105 
	C110.781372,297.821381 110.869232,291.498291 110.587624,285.174042 
	C110.372559,280.344177 112.454880,277.347321 116.155258,274.848480 
	C121.936455,270.944550 128.117920,269.433380 135.093124,270.629730 
	C139.522644,271.389435 141.109482,273.095032 140.720764,277.952789 
	C137.512421,318.047028 164.118256,356.128235 201.649979,364.844910 
	C226.887466,370.706268 248.568588,363.018250 267.707428,346.510986 
	C268.804932,345.564423 269.565155,344.096436 271.283936,343.995605 
	C272.358154,344.998810 271.526550,345.903564 271.028931,346.630890 
	C255.357025,369.537109 233.997345,382.780731 206.102478,385.374207 
	C171.228210,388.616486 134.958603,365.929199 120.374687,331.050537 
	C116.833916,322.582458 113.921127,313.953430 112.445587,304.433105 
z"/>
<path fill="url(#gradient)" opacity="1.000000" stroke="none" 
	d="
M555.870361,264.000000 
	C555.887268,257.334412 555.871033,251.168442 555.940063,245.003433 
	C555.963074,242.941574 556.192505,240.744232 559.007996,240.780792 
	C570.320557,240.927643 581.691589,239.701797 592.932190,241.429810 
	C602.595398,242.915359 609.857483,248.054657 611.961792,258.052734 
	C614.092102,268.173920 611.289307,276.875885 602.295227,282.925903 
	C601.889648,283.198669 601.555054,283.576752 600.781555,284.268982 
	C604.979858,290.647980 609.205872,297.069092 613.499329,303.592743 
	C603.899902,307.417633 596.975830,305.453003 591.904419,297.968231 
	C590.689453,296.175079 589.459595,294.391998 588.248047,292.596588 
	C584.708557,287.351654 580.621521,285.804871 574.714355,287.294464 
	C573.142578,287.690796 572.423157,288.521790 572.377686,290.030579 
	C572.327515,291.695648 572.532532,293.389374 572.298096,295.023468 
	C571.844238,298.185699 574.028992,302.526184 570.713501,304.276367 
	C567.113770,306.176636 562.533569,305.298950 558.427795,304.726746 
	C555.465393,304.313904 555.956665,301.597412 555.947266,299.494751 
	C555.894897,287.829926 555.890991,276.164948 555.870361,264.000000 
M572.340942,260.675171 
	C572.313782,274.804260 573.826843,275.973694 588.041016,272.810974 
	C588.203064,272.774933 588.370117,272.760406 588.531189,272.720886 
	C593.924316,271.398895 596.275940,268.142944 595.869873,262.562927 
	C595.519409,257.747253 592.290466,254.667618 586.954956,254.309113 
	C583.975281,254.108917 580.957764,254.396439 577.989502,254.119659 
	C573.676270,253.717468 571.687256,255.324478 572.340942,260.675171 
z"/>
<path fill="url(#gradient)" opacity="1.000000" stroke="none" 
	d="
M632.630005,299.472015 
	C620.193420,289.426758 615.985657,275.468781 620.916504,261.355042 
	C625.385925,248.562088 638.452209,239.804642 653.245056,239.687363 
	C671.397705,239.543472 684.512085,248.701431 688.692749,264.441010 
	C693.700867,283.295837 680.824890,302.539886 661.536987,305.360626 
	C651.250305,306.864990 641.661011,305.610046 632.630005,299.472015 
M658.619812,291.373566 
	C660.597778,290.514679 662.690735,289.850494 664.533081,288.762085 
	C671.371155,284.722382 674.349609,276.782745 672.556641,267.822174 
	C671.104431,260.564484 664.942322,254.921249 656.949646,253.529343 
	C649.651978,252.258484 641.560364,256.130737 637.934326,262.764008 
	C634.179016,269.633850 634.387268,276.585846 638.401367,283.194763 
	C642.812683,290.457550 649.727905,292.507690 658.619812,291.373566 
z"/>
<path fill="url(#gradient)" opacity="1.000000" stroke="none" 
	d="
M479.511353,305.050781 
	C475.578705,304.982178 474.628632,302.145294 474.013306,299.691772 
	C472.285431,292.802094 468.168091,290.479492 461.245605,291.304016 
	C456.323883,291.890289 451.269165,291.567352 446.286072,291.358063 
	C442.945374,291.217712 441.183075,292.576355 439.867554,295.596863 
	C435.618744,305.352173 431.568878,307.192444 421.074249,304.576813 
	C420.790283,304.506073 420.568878,304.184296 420.292053,303.958099 
	C419.579865,302.570190 420.401123,301.380219 420.926849,300.215729 
	C429.139008,282.025818 437.464203,263.886261 445.550446,245.640732 
	C447.200409,241.917801 449.471893,240.948242 453.454895,240.479767 
	C461.673004,239.513184 465.835327,242.455750 469.015076,250.196198 
	C475.898041,266.951416 483.933838,283.233154 491.503510,299.706085 
	C492.117767,301.042908 492.879333,302.333405 492.724121,304.165588 
	C488.512634,305.817078 484.165192,304.728180 479.511353,305.050781 
M463.081757,274.357941 
	C460.897552,269.185516 458.713379,264.013123 455.989899,257.563660 
	C452.754913,265.309174 450.174500,271.487488 447.557770,277.752686 
	C450.570465,278.512390 459.699432,278.895386 461.385590,278.654572 
	C463.739044,278.318451 463.903503,276.931396 463.081757,274.357941 
z"/>
<path fill="url(#gradient)" opacity="1.000000" stroke="none" 
	d="
M174.305466,178.192749 
	C206.261353,162.804169 240.605942,165.733231 261.094543,178.339630 
	C259.432556,179.810608 257.845367,178.656036 256.483063,178.253860 
	C218.699173,167.098984 179.016693,186.978073 160.604019,221.635696 
	C160.135498,222.517609 159.604340,223.386734 159.284988,224.324036 
	C157.533447,229.465134 154.502716,231.026642 148.976089,229.471069 
	C142.211899,227.567169 135.141647,227.783875 128.170334,229.016937 
	C127.032806,229.218124 125.855438,229.415863 123.908684,228.082840 
	C134.968674,205.826553 151.801636,189.487457 174.305466,178.192749 
z"/>
<path fill="url(#gradient)" opacity="1.000000" stroke="none" 
	d="
M403.840698,256.931824 
	C405.626007,252.755234 407.374054,248.970322 408.866150,245.087082 
	C410.096405,241.885315 412.014130,240.208847 415.626099,240.652435 
	C419.177612,241.088562 422.868408,240.007782 427.078949,241.644714 
	C424.118256,248.533798 421.269653,255.210892 418.381866,261.871002 
	C412.817902,274.703308 407.126251,287.481812 401.725830,300.382385 
	C400.296997,303.795624 398.326355,304.830536 394.673523,305.258606 
	C386.687683,306.194489 382.419525,303.353973 379.442780,295.690887 
	C372.874512,278.782135 365.314362,262.258911 358.185364,245.567093 
	C357.678436,244.380234 357.387299,243.101257 356.817413,241.301773 
	C362.222504,240.199127 367.308777,240.544968 372.337341,240.968689 
	C374.676636,241.165802 375.035736,243.709229 375.790863,245.475555 
	C380.371826,256.191254 384.849731,266.951019 389.421509,277.670715 
	C390.048126,279.139954 390.262787,280.918671 392.218719,282.035797 
	C396.876251,274.134430 399.973846,265.558350 403.840698,256.931824 
z"/>
<path fill="url(#gradient)" opacity="1.000000" stroke="none" 
	d="
M872.309082,258.001587 
	C872.306824,271.998779 872.343628,285.496429 872.259949,298.993378 
	C872.246704,301.138550 873.219299,304.070129 869.906982,304.771393 
	C866.736511,305.442657 863.732117,305.317749 861.363892,302.305634 
	C854.980530,294.186401 848.425110,286.202240 841.921814,278.177612 
	C837.107544,272.237244 832.267944,266.317413 827.230408,260.131500 
	C825.692993,261.723816 826.311890,263.426575 826.304260,264.904938 
	C826.244873,276.402222 826.193909,287.900421 826.291199,299.397095 
	C826.321167,302.940765 825.520569,305.093018 821.356750,305.098022 
	C817.295288,305.102905 815.763489,303.554535 815.795410,299.454773 
	C815.930298,282.126038 815.798950,264.795319 815.891785,247.466034 
	C815.904053,245.172318 814.760315,241.914658 818.031616,241.009598 
	C821.487915,240.053345 824.647583,240.583084 827.299133,243.939163 
	C837.523560,256.879944 848.032593,269.595917 858.442810,282.389740 
	C859.264160,283.399139 860.142029,284.362457 861.881897,286.374359 
	C861.881897,280.322601 861.877136,275.429565 861.882874,270.536530 
	C861.892822,262.038239 862.025330,253.537857 861.873657,245.042511 
	C861.798706,240.845566 864.253418,240.675354 867.388367,240.643677 
	C870.523804,240.611984 872.527344,241.236435 872.345398,245.006393 
	C872.144775,249.162445 872.305176,253.335938 872.309082,258.001587 
z"/>
<path fill="url(#gradient)" opacity="1.000000" stroke="none" 
	d="
M533.586426,243.313049 
	C536.733704,240.370361 543.768616,239.739044 550.212158,241.515991 
	C550.864746,243.410889 549.450439,244.651947 548.644043,246.012100 
	C543.717957,254.320786 539.167358,262.902832 533.612061,270.772980 
	C528.420959,278.127228 526.673767,285.827301 527.020569,294.639557 
	C527.436646,305.210083 528.761047,305.006439 516.523682,305.107727 
	C511.996918,305.145172 509.933807,303.679199 510.650055,299.047729 
	C512.523804,286.932220 508.362518,276.719177 501.385406,267.015686 
	C496.541504,260.279053 492.707062,252.814102 488.471283,245.645172 
	C487.740143,244.407745 486.552063,243.277420 487.125702,240.843155 
	C491.854156,240.843155 496.756165,240.715530 501.646027,240.903381 
	C503.722626,240.983170 504.452301,243.065308 505.391357,244.604370 
	C508.861176,250.291397 512.262573,256.020355 515.759094,261.690735 
	C516.690369,263.200958 517.327209,265.013184 519.655823,266.090790 
	C524.226868,258.614685 528.802063,251.131821 533.586426,243.313049 
z"/>
<path fill="url(#gradient)" opacity="1.000000" stroke="none" 
	d="
M203.112350,186.972641 
	C228.293457,176.194885 252.404724,176.962540 275.756134,190.503204 
	C275.523682,193.439514 273.721680,193.931839 272.407684,194.810730 
	C267.970215,197.778854 263.476105,200.737045 259.982147,204.792267 
	C256.935974,208.327789 254.218597,208.390182 250.061752,206.316422 
	C225.475647,194.051102 201.562515,195.490814 178.700592,210.889145 
	C175.344437,213.149628 172.418320,216.048553 168.893188,218.985321 
	C169.846939,210.449982 188.299728,193.273514 203.112350,186.972641 
z"/>
<path fill="url(#gradient)" opacity="1.000000" stroke="none" 
	d="
M723.640686,268.259857 
	C729.250244,269.504761 734.380615,270.929352 738.968689,273.770874 
	C748.056763,279.399384 748.900452,293.121429 740.621826,299.908295 
	C730.804321,307.956757 707.322205,307.382904 697.858093,298.784180 
	C693.790405,295.088409 698.238159,292.754639 699.109985,289.925140 
	C701.535034,289.672668 702.762207,291.272125 704.317444,292.126923 
	C712.050903,296.377350 720.171692,298.092072 728.823792,295.631287 
	C732.586304,294.561127 735.394958,292.311554 735.659546,288.025909 
	C735.934692,283.568970 733.126709,281.332825 729.374512,280.149445 
	C722.564026,278.001556 715.570862,276.381561 708.873169,273.939758 
	C699.552673,270.541809 695.987915,264.083374 697.750244,254.863434 
	C698.870667,249.001511 702.480225,245.041031 707.850159,242.727402 
	C717.514465,238.563660 727.298645,238.847794 737.018127,242.491333 
	C744.216064,245.189621 744.583862,246.733200 739.645203,253.865128 
	C733.369141,250.152451 726.418213,248.362320 718.941589,249.113663 
	C716.423157,249.366730 713.992432,249.755585 711.836121,251.162537 
	C705.971436,254.989105 706.211670,261.348206 712.381836,264.553040 
	C715.802368,266.329651 719.546814,267.196259 723.640686,268.259857 
z"/>
<path fill="url(#gradient)" opacity="1.000000" stroke="none" 
	d="
M894.917236,278.910339 
	C900.145813,295.560883 918.504456,301.818726 932.448120,291.875397 
	C935.480103,289.713318 937.707642,289.172028 940.682617,291.922211 
	C943.455261,294.485443 942.901917,296.146759 940.364380,298.307922 
	C928.800049,308.156799 906.874451,307.929749 894.866760,297.742065 
	C882.634277,287.363678 880.022461,269.334747 888.692627,255.123047 
	C898.479370,239.081131 924.120056,234.522415 938.902344,246.312851 
	C940.692627,247.740799 944.258972,249.118347 941.179077,252.502853 
	C938.884521,255.024353 936.953186,257.072357 932.893921,254.202438 
	C918.133911,243.766937 899.294067,250.093048 894.879028,266.652740 
	C893.834473,270.570892 894.100586,274.558533 894.917236,278.910339 
z"/>
<path fill="url(#gradient)" opacity="1.000000" stroke="none" 
	d="
M760.981689,243.832825 
	C766.893677,253.297241 772.601135,262.432129 778.441956,271.780457 
	C781.367371,270.024963 782.194031,267.566711 783.469299,265.526611 
	C787.354126,259.311676 791.145142,253.037766 794.937988,246.765808 
	C799.065125,239.940918 799.602905,239.694855 807.852295,241.304062 
	C808.652954,243.217194 807.156921,244.412827 806.339050,245.751434 
	C800.434021,255.417206 794.652344,265.166046 788.455688,274.642822 
	C785.305786,279.460175 783.677307,284.376526 784.150940,290.108948 
	C784.397095,293.087555 784.002441,296.117981 784.230530,299.099518 
	C784.555237,303.344269 782.967468,305.100983 778.560608,305.100739 
	C773.899719,305.100494 773.211304,302.449371 773.709290,298.951050 
	C775.383362,287.190979 771.484497,277.244293 764.720032,267.827820 
	C759.775024,260.944305 755.664551,253.459396 751.226868,246.215088 
	C750.382080,244.836136 749.165161,243.572678 749.330139,241.168030 
	C753.356812,240.970627 757.591858,238.816437 760.981689,243.832825 
z"/>
<path fill="url(#gradient)" opacity="1.000000" stroke="none" 
	d="
M419.832275,327.413239 
	C422.333374,324.552490 423.737976,326.640717 425.088287,328.236694 
	C428.293274,332.024841 431.397003,335.898621 435.720612,339.593506 
	C435.720612,336.260193 435.676727,332.926025 435.740906,329.593964 
	C435.769043,328.133423 435.666687,326.264587 437.760681,326.221497 
	C440.127716,326.172729 440.140289,328.213684 440.162140,329.836426 
	C440.233704,335.155701 440.204041,340.476929 440.152771,345.796844 
	C440.140167,347.104736 440.137634,348.570251 438.457062,349.017029 
	C436.960327,349.414917 435.905426,348.580933 434.987091,347.556061 
	C431.366913,343.515900 428.585480,338.751251 424.003784,334.758118 
	C424.003784,338.326691 424.104065,341.427765 423.964569,344.518066 
	C423.886322,346.251099 424.083099,348.714020 421.530304,348.660706 
	C419.177277,348.611603 419.865662,346.273193 419.613190,344.737061 
	C418.685760,339.093262 419.516754,333.465088 419.832275,327.413239 
z"/>
<path fill="url(#gradient)" opacity="1.000000" stroke="none" 
	d="
M553.993896,346.488983 
	C553.556152,348.152527 552.868042,349.079773 551.449280,348.793854 
	C550.042175,348.510284 549.756165,347.280060 549.749756,346.088501 
	C549.718689,340.268738 549.727295,334.448486 549.765625,328.628723 
	C549.773499,327.434998 550.025024,326.256500 551.488159,325.976562 
	C553.023438,325.682800 553.987122,326.622345 554.856018,327.671173 
	C558.134949,331.629425 561.401306,335.598114 565.861511,339.509216 
	C565.861511,336.347015 565.798584,333.183044 565.889038,330.023438 
	C565.932129,328.516449 566.203674,326.742065 568.145874,326.712830 
	C570.287964,326.680573 570.149536,328.609772 570.171265,330.039398 
	C570.249756,335.193726 570.245850,340.349792 570.216492,345.504883 
	C570.209106,346.801025 570.353027,348.336670 568.772766,348.903564 
	C567.075745,349.512329 565.955872,348.438751 564.968384,347.228943 
	C561.722168,343.251862 558.472778,339.277405 554.067444,335.414062 
	C554.067444,338.962677 554.067444,342.511292 553.993896,346.488983 
z"/>
<path fill="url(#gradient)" opacity="1.000000" stroke="none" 
	d="
M696.210327,344.771912 
	C695.987366,346.818298 696.246094,348.955139 693.823730,348.821991 
	C691.449341,348.691467 691.788330,346.545044 691.766296,344.966675 
	C691.696533,339.975861 691.705444,334.983093 691.758667,329.991882 
	C691.774048,328.556427 691.421326,326.773529 693.221558,326.106537 
	C695.185181,325.379028 696.262878,326.892242 697.325745,328.182495 
	C700.481384,332.013153 703.624268,335.854309 707.881775,339.506439 
	C707.881775,336.297241 707.825806,333.086639 707.905090,329.879395 
	C707.945618,328.242340 707.907593,326.204834 710.264648,326.236328 
	C712.366211,326.264404 712.251404,328.158112 712.263367,329.614746 
	C712.306824,334.938751 712.291931,340.263580 712.243774,345.587616 
	C712.231995,346.890381 712.317383,348.410797 710.688599,348.912262 
	C709.185669,349.374939 708.219055,348.366028 707.290466,347.352966 
	C703.743713,343.483246 701.115234,338.799408 696.220520,334.859772 
	C696.220520,338.468658 696.220520,341.396576 696.210327,344.771912 
z"/>
<path fill="url(#gradient)" opacity="1.000000" stroke="none" 
	d="
M669.598145,348.627075 
	C662.307068,344.553741 660.118469,337.648407 663.812195,331.308624 
	C667.290771,325.338104 675.729858,323.424988 681.694458,327.254730 
	C687.395935,330.915527 688.884155,338.532684 685.030457,344.329041 
	C681.965149,348.939545 677.075256,350.384766 669.598145,348.627075 
M676.784180,329.564453 
	C672.256775,328.766022 668.857483,330.324585 667.292725,334.708252 
	C665.925232,338.539246 666.905823,341.957214 670.432312,344.259003 
	C674.052979,346.622314 678.940979,345.452515 681.346558,341.809204 
	C684.119141,337.610229 682.659973,333.074585 676.784180,329.564453 
z"/>
<path fill="url(#gradient)" opacity="1.000000" stroke="none" 
	d="
M533.748962,325.099060 
	C539.732117,326.148895 543.581116,329.193268 544.935730,334.817932 
	C545.989380,339.193237 544.734741,343.062042 541.485962,346.171844 
	C537.806458,349.694000 531.733093,350.537506 527.088013,348.302368 
	C522.535950,346.111908 519.642273,341.306549 520.070007,336.647888 
	C520.592041,330.962311 524.067505,327.012512 529.915710,325.552094 
	C531.032288,325.273254 532.204651,325.217926 533.748962,325.099060 
M537.490906,330.922577 
	C534.206665,328.853516 530.881653,328.577484 527.755920,331.096985 
	C525.266724,333.103455 524.044678,335.771759 524.783264,339.043457 
	C525.607544,342.694611 527.993225,344.933746 531.606018,345.452057 
	C535.035767,345.944061 537.848572,344.414429 539.578796,341.424835 
	C541.691650,337.774048 540.878235,334.396271 537.490906,330.922577 
z"/>
<path fill="url(#gradient)" opacity="1.000000" stroke="none" 
	d="
M903.095459,347.410767 
	C900.763062,350.389435 899.237427,348.600067 897.822388,346.914124 
	C894.627014,343.107056 891.506470,339.237244 888.108948,335.092255 
	C885.640015,339.501099 889.456055,345.303497 884.598633,348.898956 
	C881.860962,346.746979 882.817688,344.056885 882.717834,341.745667 
	C882.545776,337.763367 882.660339,333.766022 882.743286,329.776825 
	C882.772949,328.346893 882.492554,326.600037 884.457458,326.087585 
	C885.997681,325.685913 886.922607,326.773560 887.788391,327.804443 
	C891.089233,331.735046 894.376953,335.676697 898.117798,340.150208 
	C899.353516,336.321472 898.504333,332.905365 898.799194,329.603943 
	C898.947388,327.945221 898.882629,325.971863 901.288147,326.103729 
	C903.398193,326.219391 903.236755,328.086090 903.244507,329.527283 
	C903.275879,335.345276 903.219910,341.163788 903.095459,347.410767 
z"/>
<path fill="url(#gradient)" opacity="1.000000" stroke="none" 
	d="
M770.763306,344.578217 
	C765.928528,351.097839 755.867126,350.123108 752.164917,346.714478 
	C747.494934,342.414825 746.601440,335.680878 750.241333,330.507843 
	C753.842896,325.389343 761.010132,323.741791 766.688782,326.727020 
	C771.992920,329.515350 774.396301,335.838531 772.298767,341.595856 
	C771.961487,342.521667 771.431824,343.377441 770.763306,344.578217 
M767.747986,333.890259 
	C763.973206,328.895905 759.365234,327.818298 755.541992,331.238861 
	C752.319824,334.121674 751.331970,337.717865 753.728333,341.542542 
	C755.886414,344.986755 759.128601,346.459717 763.177063,345.076202 
	C767.539490,343.585358 769.118347,340.054504 767.747986,333.890259 
z"/>
<path fill="url(#gradient)" opacity="1.000000" stroke="none" 
	d="
M514.611084,349.210205 
	C511.913971,348.925232 511.161591,346.873566 510.070251,345.286224 
	C508.755707,343.374176 507.278076,342.169617 504.764252,342.321045 
	C502.109772,342.480988 502.177155,344.380432 501.853455,346.160126 
	C501.627686,347.401398 501.055115,348.419464 499.581360,348.275818 
	C498.104523,348.131836 497.741180,346.932495 497.694519,345.744202 
	C497.467163,339.952515 497.279816,334.158752 497.155304,328.364044 
	C497.129913,327.182098 497.509155,325.754608 498.916718,325.750397 
	C503.518585,325.736633 508.305145,324.665497 512.649231,326.777435 
	C518.102722,329.428711 518.216187,335.424652 513.393677,341.112305 
	C512.129211,344.360870 518.527161,345.635468 514.611084,349.210205 
M509.144318,337.908600 
	C511.558502,336.843048 513.115723,335.182556 511.954346,332.445007 
	C510.592072,329.233917 507.624298,329.138062 504.717712,329.397583 
	C501.457062,329.688660 502.139832,332.312866 502.035309,334.362671 
	C501.767334,339.617645 505.200867,338.753937 509.144318,337.908600 
z"/>
<path fill="url(#gradient)" opacity="1.000000" stroke="none" 
	d="
M877.816284,334.699768 
	C878.491333,342.487457 875.199707,347.639587 868.991943,349.099182 
	C862.451843,350.636871 856.534546,347.912292 854.078308,342.232178 
	C851.572815,336.438141 853.810181,329.773682 859.239563,326.858215 
	C865.040527,323.743164 872.715149,325.470215 876.039246,330.712799 
	C876.739868,331.817719 877.145203,333.109833 877.816284,334.699768 
M867.756348,329.568573 
	C862.153137,329.246338 858.909546,331.091187 857.763245,335.463501 
	C856.756592,339.302704 858.210449,342.318909 861.479126,344.352051 
	C865.242676,346.693054 869.866394,345.523865 872.327271,341.806885 
	C875.104614,337.611938 873.730713,333.366394 867.756348,329.568573 
z"/>
<path fill="url(#gradient)" opacity="1.000000" stroke="none" 
	d="
M486.855225,346.664673 
	C486.610046,339.350983 484.322998,337.709229 477.567291,339.334503 
	C475.650818,339.795563 475.325592,340.980804 475.178741,342.557098 
	C474.961426,344.890015 474.686737,347.215973 472.260071,348.369934 
	C470.815674,348.170319 470.733154,347.101227 470.726807,346.122223 
	C470.690186,340.480957 470.673798,334.839081 470.723389,329.198029 
	C470.736328,327.724884 470.739594,325.977783 472.915955,326.023224 
	C474.667419,326.059814 474.829620,327.509399 475.070129,328.848816 
	C476.072937,334.433899 478.835938,336.087433 484.372711,334.750610 
	C487.256989,334.054199 486.537842,331.874725 486.743011,330.014160 
	C486.918152,328.426331 486.497620,326.264313 488.823273,326.153564 
	C491.601898,326.021301 491.197937,328.441376 491.222687,330.149628 
	C491.297150,335.292114 491.250946,340.437012 491.194946,345.580322 
	C491.180389,346.915314 491.028748,348.366028 489.434235,348.795380 
	C488.076752,349.160889 487.240356,348.420502 486.855225,346.664673 
z"/>
<path fill="url(#gradient)" opacity="1.000000" stroke="none" 
	d="
M616.356201,344.132080 
	C613.937378,344.040192 612.367065,344.636536 611.437012,346.576965 
	C610.600525,348.322205 609.499573,349.756012 606.531250,348.518921 
	C608.886414,340.975739 612.336487,333.888824 616.198730,327.034332 
	C617.429749,324.849548 619.958923,325.208344 621.034607,327.420654 
	C624.356140,334.251953 628.194702,340.880768 630.836060,349.489777 
	C625.361572,347.779694 622.357300,341.916443 616.356201,344.132080 
M619.353149,333.091614 
	C615.248474,333.478638 616.465271,336.786011 615.622253,339.143463 
	C617.868530,339.923645 619.704346,340.466644 621.358643,338.783539 
	C621.398254,336.772064 620.334656,335.248840 619.353149,333.091614 
z"/>
<path fill="url(#gradient)" opacity="1.000000" stroke="none" 
	d="
M388.045715,341.652771 
	C385.693329,339.588440 382.898224,339.483948 380.435120,338.525391 
	C377.382812,337.337616 375.160217,335.540985 375.289734,331.996094 
	C375.416779,328.517426 377.645996,326.675812 380.735840,325.626862 
	C384.103790,324.483459 387.310974,325.237183 390.457275,326.455414 
	C391.426270,326.830627 392.160889,327.581207 391.773926,328.781708 
	C391.408966,329.914062 390.458740,330.350830 389.409698,330.075287 
	C387.297272,329.520538 385.198059,329.010651 383.011566,329.456146 
	C381.625214,329.738586 380.453827,330.378784 380.397430,332.007874 
	C380.349426,333.393494 381.317963,334.108032 382.463348,334.512268 
	C384.657776,335.286774 386.915588,335.887726 389.090057,336.711212 
	C392.073486,337.841095 393.626007,339.989197 393.283386,343.286835 
	C392.946075,346.533325 390.970825,348.410217 387.973114,349.143036 
	C384.150146,350.077576 380.350250,349.932159 376.831818,347.920929 
	C375.643738,347.241821 374.541748,346.312164 375.455078,344.707001 
	C376.259369,343.293427 377.371735,343.870758 378.485718,344.343658 
	C380.330170,345.126709 382.213135,345.868073 384.273987,345.647156 
	C386.497803,345.408783 388.789764,345.162811 388.045715,341.652771 
z"/>
<path fill="url(#gradient)" opacity="1.000000" stroke="none" 
	d="
M913.833496,330.687866 
	C912.749329,333.401886 914.199402,334.302094 916.173279,334.855042 
	C917.932678,335.347900 919.726196,335.744141 921.445068,336.351593 
	C924.773132,337.527802 926.790283,339.717224 926.295654,343.493042 
	C925.836426,346.998688 923.429932,348.724548 920.242493,349.175446 
	C916.787415,349.664154 913.244873,349.813599 910.011719,348.012024 
	C908.843567,347.361084 907.566467,346.585876 908.314697,344.918488 
	C909.080200,343.212799 910.388794,343.674072 911.677307,344.282471 
	C913.656006,345.216614 915.697327,345.924438 917.932007,345.580841 
	C919.460083,345.345856 921.050354,344.859009 921.368591,343.172455 
	C921.734314,341.234802 920.024048,340.732941 918.623291,340.221100 
	C916.440613,339.423492 914.187561,338.804016 912.044739,337.915375 
	C909.471497,336.848267 908.207886,334.742310 908.321899,331.987823 
	C908.434631,329.262177 909.785706,327.280670 912.411011,326.270050 
	C915.822205,324.956848 919.274841,325.172760 922.693115,326.120911 
	C923.966858,326.474213 925.374756,327.192657 924.934570,328.889313 
	C924.472290,330.671021 923.023071,330.388062 921.679077,329.974091 
	C919.084167,329.174805 916.508179,328.636536 913.833496,330.687866 
z"/>
<path fill="url(#gradient)" opacity="1.000000" stroke="none" 
	d="
M812.887207,332.135651 
	C813.005310,330.348724 813.041565,329.014435 813.259399,327.710480 
	C813.441589,326.620667 814.169800,325.962891 815.350525,326.014343 
	C816.565613,326.067352 817.174622,326.871338 817.211487,327.947083 
	C817.387512,333.087128 818.091614,338.311462 816.753906,343.329559 
	C815.579163,347.736145 812.048157,349.570465 807.616455,349.611298 
	C803.037964,349.653442 799.451721,347.922150 797.851379,343.383636 
	C796.143005,338.538727 796.990662,333.505035 797.154175,328.541290 
	C797.193970,327.333862 797.779297,326.220856 799.252502,326.213074 
	C800.681641,326.205536 801.414551,327.237854 801.469482,328.454742 
	C801.573608,330.763824 801.447754,333.085419 801.367188,335.400055 
	C801.285522,337.746307 801.356995,340.071869 802.314514,342.258209 
	C803.386108,344.705078 805.461121,345.740723 807.952026,345.438019 
	C810.412415,345.139008 812.441345,343.828003 812.667786,341.071228 
	C812.898682,338.261017 812.824524,335.425720 812.887207,332.135651 
z"/>
<path fill="url(#gradient)" opacity="1.000000" stroke="none" 
	d="
M733.629761,345.513184 
	C734.993469,345.585205 736.010315,345.720032 736.982117,345.567474 
	C738.498779,345.329376 740.075867,344.775970 740.343140,343.067749 
	C740.644531,341.141327 738.969788,340.645233 737.548767,340.141815 
	C735.356079,339.364960 733.067200,338.802551 730.972107,337.822174 
	C728.561707,336.694275 727.011963,334.723755 727.250000,331.878998 
	C727.477051,329.165924 728.860413,327.172821 731.495544,326.243988 
	C735.069519,324.984161 738.650085,324.750153 742.150513,326.510590 
	C743.071655,326.973846 743.874329,327.644470 743.495972,328.846161 
	C743.133545,329.997345 742.183289,330.242706 741.101990,330.105408 
	C739.133972,329.855560 737.174866,329.464905 735.200073,329.360352 
	C733.567383,329.273926 732.176025,330.079803 731.857910,331.762726 
	C731.540405,333.442230 733.056274,334.044708 734.248779,334.513611 
	C736.562744,335.423523 739.017639,335.987335 741.299744,336.962494 
	C743.987061,338.110779 745.485962,340.236542 745.209473,343.278809 
	C744.935852,346.289062 743.100037,348.179779 740.330627,348.957703 
	C736.900879,349.921082 733.393372,349.852112 730.040283,348.531921 
	C728.549011,347.944824 726.468140,347.262604 727.225769,345.126801 
	C728.135620,342.561829 729.939270,344.408966 731.376648,344.793945 
	C732.017700,344.965729 732.634827,345.226715 733.629761,345.513184 
z"/>
<path fill="url(#gradient)" opacity="1.000000" stroke="none" 
	d="
M599.728210,325.629456 
	C601.747192,325.832855 603.765198,324.998047 604.580017,327.028107 
	C605.229797,328.647125 603.916321,329.829498 602.995483,330.983582 
	C599.376587,335.518860 595.730957,340.032745 591.873291,344.830536 
	C596.142212,346.910187 601.039978,343.971130 604.762634,347.057281 
	C603.655640,350.035126 601.348206,349.192963 599.533875,349.269562 
	C596.208862,349.410004 592.869263,349.408142 589.543518,349.274292 
	C585.451721,349.109619 584.635681,347.690216 587.038940,344.375031 
	C590.520996,339.571655 594.345337,335.016449 598.161865,330.180237 
	C594.071899,328.022278 589.457214,330.964691 585.210632,326.991455 
	C590.268921,324.777679 594.907043,326.151825 599.728210,325.629456 
z"/>
<path fill="url(#gradient)" opacity="1.000000" stroke="none" 
	d="
M449.531921,334.794800 
	C449.049896,343.450195 453.318268,346.885590 461.159210,344.569763 
	C462.733490,344.104797 464.299744,343.120056 465.552765,345.088257 
	C462.360565,350.618958 453.033173,351.093567 448.061859,346.000275 
	C443.830383,341.664978 443.515350,334.214081 447.365265,329.524658 
	C450.613800,325.567749 459.073395,324.150879 463.473755,326.871307 
	C464.562927,327.544739 466.089478,328.198761 465.293152,329.889832 
	C464.550720,331.466431 463.207733,330.983398 461.843231,330.587402 
	C454.959503,328.589417 453.162781,329.186310 449.531921,334.794800 
z"/>
<path fill="url(#gradient)" opacity="1.000000" stroke="none" 
	d="
M396.786469,325.702209 
	C401.709717,327.556610 401.896851,333.041748 405.314697,335.818909 
	C409.590393,333.444550 409.177490,326.123138 415.827850,325.676941 
	C415.756073,329.473663 413.587402,331.503174 412.195709,333.868011 
	C410.098938,337.430878 407.534607,340.734985 407.845764,345.268494 
	C407.957184,346.891602 407.542908,348.861877 405.317963,348.882538 
	C402.970520,348.904327 402.824127,346.920135 402.980255,345.272644 
	C403.560760,339.147461 398.833679,335.368011 396.715546,330.443878 
	C396.130585,329.083984 393.067596,327.423859 396.786469,325.702209 
z"/>
<path fill="url(#gradient)" opacity="1.000000" stroke="none" 
	d="
M832.815552,339.803497 
	C832.644226,342.224518 832.513977,344.209106 832.351685,346.191040 
	C832.238770,347.570953 832.000305,348.955811 830.181274,348.896301 
	C828.427673,348.839020 828.052856,347.432220 828.013855,346.086914 
	C827.913208,342.608459 827.878784,339.123627 827.970337,335.645325 
	C828.063904,332.094177 828.101318,328.775299 823.037781,329.114349 
	C822.006714,329.183411 821.126953,328.579346 821.148560,326.951752 
	C823.623901,324.547424 826.888672,325.887573 829.831177,325.713196 
	C832.472290,325.556671 835.134460,325.703247 837.785156,325.785767 
	C838.815308,325.817780 839.864075,326.162476 839.876526,327.403442 
	C839.881775,327.920532 839.231750,328.915680 838.931885,328.896027 
	C829.805298,328.298096 833.220398,334.933228 832.815552,339.803497 
z"/>
<path fill="url(#gradient)" opacity="1.000000" stroke="none" 
	d="
M639.998413,325.647034 
	C642.632812,325.678040 644.790405,325.669617 646.944824,325.747986 
	C648.146179,325.791687 649.368652,326.021820 649.309937,327.627289 
	C649.263245,328.904541 648.228455,329.348267 647.222229,329.233765 
	C642.229614,328.665649 641.944031,331.721161 642.177246,335.428345 
	C642.333191,337.906219 642.390625,340.425537 642.116211,342.884338 
	C641.888977,344.920471 643.237427,348.523987 639.855652,348.375641 
	C636.826111,348.242767 637.878784,344.736603 637.730652,342.590179 
	C637.548340,339.948090 637.558167,337.278107 637.701599,334.631927 
	C637.879089,331.357941 637.247070,329.012299 633.221313,329.274811 
	C632.088074,329.348694 630.654663,329.187469 630.641541,327.618042 
	C630.625610,325.719574 632.266968,325.813019 633.550171,325.746521 
	C635.536621,325.643616 637.529846,325.671478 639.998413,325.647034 
z"/>
<path fill="url(#gradient)" opacity="1.000000" stroke="none" 
	d="
M793.369080,346.321045 
	C793.989746,347.460632 794.026611,348.534180 793.138611,348.742920 
	C788.585266,349.813324 783.960876,349.469849 779.380798,348.932953 
	C777.718506,348.738068 777.710571,347.073547 777.705933,345.746368 
	C777.686646,340.284973 777.676758,334.823029 777.744629,329.362274 
	C777.762756,327.903564 777.776550,326.060089 779.917175,326.187439 
	C781.924866,326.306946 781.925049,328.145416 781.973083,329.585358 
	C782.088928,333.057617 782.295227,336.554077 782.020081,340.005310 
	C781.678040,344.296936 783.160095,346.193085 787.613464,345.681580 
	C789.381409,345.478546 791.220398,345.894012 793.369080,346.321045 
z"/>
<path fill="url(#gradient)" opacity="1.000000" stroke="none" 
	d="
M657.343872,336.234985 
	C657.525574,339.637634 657.786743,342.602722 657.858704,345.572388 
	C657.898804,347.225098 657.816101,349.130127 655.454224,349.124634 
	C653.540466,349.120178 652.998413,347.616302 652.982727,346.031036 
	C652.928528,340.577026 652.903748,335.121033 653.002380,329.668274 
	C653.027893,328.257629 653.090637,326.352081 655.089294,326.280670 
	C657.426453,326.197113 657.455444,328.319916 657.566467,329.871368 
	C657.706787,331.832001 657.437134,333.821991 657.343872,336.234985 
z"/>
<path fill="url(#gradient)" opacity="1.000000" stroke="none" 
	d="
M848.295898,336.036926 
	C848.286987,339.510529 848.324219,342.497406 848.250244,345.481506 
	C848.214233,346.933533 848.357117,348.745575 846.266357,348.887390 
	C844.220093,349.026184 843.875671,347.372040 843.859497,345.830688 
	C843.800293,340.192261 843.795105,334.552460 843.857605,328.914154 
	C843.872681,327.550262 844.279480,326.143036 846.081360,326.237518 
	C847.804443,326.327881 848.144836,327.702850 848.202759,329.082153 
	C848.293335,331.235260 848.270752,333.393158 848.295898,336.036926 
z"/>
<path fill="url(#gradient)" opacity="1.000000" stroke="none" 
	d="
M576.668701,335.047760 
	C576.715271,332.400360 576.712585,330.240143 576.819763,328.085419 
	C576.872070,327.034241 577.326477,326.121643 578.546692,326.002502 
	C579.963623,325.864197 580.900452,326.694977 580.922424,327.969025 
	C581.031006,334.273132 581.040955,340.579987 580.983582,346.884979 
	C580.971924,348.165863 580.138367,349.059021 578.697937,348.946777 
	C577.216370,348.831360 576.807312,347.738770 576.783020,346.496765 
	C576.711670,342.844208 576.699829,339.190460 576.668701,335.047760 
z"/>
</svg>
